<?xml version="1.0" encoding="utf-8"?>
<!-- Generator: Adobe Illustrator 28.0.0, SVG Export Plug-In . SVG Version: 6.00 Build 0)  -->
<svg version="1.1" id="Layer_1" xmlns="http://www.w3.org/2000/svg" xmlns:xlink="http://www.w3.org/1999/xlink" x="0px" y="0px"
	 viewBox="0 0 1366 328.9" style="enable-background:new 0 0 1366 328.9;" xml:space="preserve">
<g>
	<g>
		<path d="M551.1,108.9l-28.8,39.2v0L494,108.9h-18.7v91.2h21.3v-57.5l23.1,33h5.4l23.4-32.8v57.3h21.2v-91.2H551.1z"/>
		<path d="M628.3,130.8l-12.9,35.3l-1.9,8.2l-1.9-8.2l-13.2-35.4h-21.7l25.8,65.1l-0.9,2.6c-2.1,6-4.8,8.5-11.3,8.5h-11.6v16.9h12
			c15.8,0,24.4-3.1,32.9-24.9l26.7-68.3L628.3,130.8z"/>
		<path d="M699.3,150v17h24.4c-2.6,10-11.4,15.8-23.6,15.8c-14.7,0-27-10.2-27-28.3c0-17.6,12.3-28.4,27-28.4
			c11.3,0,19.9,5.3,24.4,14.2H746c-3.8-21.5-26.1-33.7-45.3-33.7c-27,0-48.9,21.2-48.9,47.7c0,26.5,21.9,47.8,48.4,47.8
			c30,0,47.4-20.1,47.1-52.2H699.3z"/>
		<path d="M790.6,130.6c-8.1,0-13.3,4-16.4,9.8v-9.8h-19.8v69.5h20.7v-32c0-12.9,6.2-19.9,16.6-19.9h6.9v-17.6H790.6z"/>
		<path d="M856.8,130.6v8.9c-4.2-7.1-12.5-11.1-22.7-11.1c-18.3,0-31.8,16.7-31.8,37c0,20.4,13.3,37,32,37c10.1,0,18.3-4,22.5-11.1
			v8.8h19.7v-69.5H856.8z M839.2,183.4c-8.8,0-16.6-6.2-16.6-18c0-11.2,7.5-18,16.6-18c9.3,0,16.6,8,16.6,18
			C855.9,175.6,848.6,183.4,839.2,183.4z"/>
		<path d="M924.9,128.4c-9.6,0-17.8,4.4-21.8,10.6v-8.4h-19.7v69.5h20.7v-34.5c0-12.4,7.2-18.3,15-18.3c7.7,0,12.9,4.4,12.9,15.9
			v36.8h20.7v-37.3C952.7,141.4,943.8,128.4,924.9,128.4z"/>
		<path d="M1013.3,105.6v25.7l0.4,7.6c-3.3-4.9-10.7-10.5-20.6-10.5c-20.5,0-33.3,16.7-33.3,37c0,20.4,13.3,37,33.1,37
			c10.7,0,17.6-5.7,21.3-11.1v8.8h19.6v-94.5H1013.3z M996.7,183.4c-10.1,0-16.6-7.9-16.6-18c0-10.7,7.1-18,16.6-18
			c9.4,0,16.7,7.9,16.7,18C1013.4,175.6,1006.1,183.4,996.7,183.4z"/>
		<path d="M1154.1,108.9l-15.3,52.6l-2.3,10h-0.2l-1.8-9.4l-14.5-53.2h-22.4l-14.6,53.4l-1.5,9.2h-0.3l-2.1-9l-15.7-53.6h-22.4
			l29.2,91.2h20.5l18.2-62.2l18.2,62.2h20.5l29.2-91.2H1154.1z"/>
		<path d="M1224.6,130.6v8.9c-4.2-7.1-12.5-11.1-22.7-11.1c-18.3,0-31.9,16.7-31.9,37c0,20.4,13.3,37,32,37c10.1,0,18.3-4,22.6-11.1
			v8.8h19.6v-69.5H1224.6z M1207.1,183.4c-8.8,0-16.6-6.2-16.6-18c0-11.2,7.5-18,16.6-18c9.2,0,16.6,8,16.6,18
			C1223.8,175.6,1216.5,183.4,1207.1,183.4z"/>
		<path d="M1302.8,130.8l-12.9,35.3l-1.9,8.2l-1.9-8.2l-13.2-35.4h-21.7l25.8,65.1l-0.9,2.6c-2.1,6-4.8,8.5-11.3,8.5h-11.6v16.9h12
			c15.8,0,24.4-3.1,32.9-24.9l26.7-68.3L1302.8,130.8z"/>
	</g>
	<polygon points="321.2,46.7 291.7,175.1 283.9,175.1 299.8,46.7 208.2,46.7 178.6,175.1 170.9,175.1 186.8,46.7 82.8,46.7 
		41.2,282.8 204.9,282.8 223.9,200.5 231.6,200.5 221.5,282.8 385.6,282.8 427.2,46.7 	"/>
</g>
</svg>
